<?xml version="1.0" encoding="UTF-8"?>
<!DOCTYPE svg PUBLIC "-//W3C//DTD SVG 1.1//EN" "http://www.w3.org/Graphics/SVG/1.1/DTD/svg11.dtd">
<!-- Creator: CorelDRAW X6 -->
<svg xmlns="http://www.w3.org/2000/svg" xml:space="preserve" width="103mm" height="42mm" version="1.1" style="shape-rendering:geometricPrecision; text-rendering:geometricPrecision; image-rendering:optimizeQuality; fill-rule:evenodd; clip-rule:evenodd"
viewBox="0 0 10300 4200"
 xmlns:xlink="http://www.w3.org/1999/xlink">
 <defs>
  <style type="text/css">
   <![CDATA[.fil0 {fill:#E50914;fill-rule:nonzero}]]>
  </style>
 </defs>
 <g id="Capa_x0020_1">
  <metadata id="CorelCorpID_0Corel-Layer"/>
  <path class="fil0" d="M438 574c256,0 513,0 770,0 268,0 464,60 587,177 122,117 184,296 184,539 0,64 0,128 0,191 0,323 -114,534 -340,633 0,3 0,6 0,9 126,28 215,96 267,203 52,107 78,252 78,436 0,182 0,365 0,547 0,89 3,161 10,215 6,54 22,107 47,157 -177,19 -354,40 -530,61 -18,-49 -31,-95 -38,-140 -6,-45 -10,-126 -10,-244 0,-193 0,-387 0,-581 0,-145 -24,-244 -73,-299 -48,-54 -133,-77 -253,-68 -61,4 -120,9 -180,14 0,231 0,463 0,694 0,231 0,463 0,694 -174,24 -347,48 -520,72 0,-552 0,-1104 0,-1655 0,-552 0,-1104 0,-1656zm709 1378c103,-6 181,-36 233,-90 52,-54 78,-141 78,-262 0,-82 0,-163 0,-245 0,-115 -21,-197 -64,-248 -42,-51 -110,-75 -201,-74 -79,1 -158,3 -237,4 0,155 0,309 0,463 0,154 0,308 0,463 63,-4 126,-7 190,-11zm1598 -1378c234,0 469,0 705,0 90,497 179,991 269,1483 90,491 179,980 270,1467 -174,10 -347,21 -520,32 -32,-195 -64,-391 -94,-586 0,3 0,6 0,8 -198,12 -395,25 -592,38 -32,200 -64,401 -94,602 -161,15 -322,30 -482,46 90,-522 179,-1042 269,-1558 89,-514 179,-1024 270,-1533zm568 2001c-40,-245 -78,-490 -117,-736 -39,-246 -77,-493 -116,-741 -3,0 -6,0 -9,0 -39,249 -77,499 -115,748 -38,250 -75,502 -113,753 156,-9 312,-17 468,-25zm927 -2001c458,0 917,0 1376,0 0,139 0,277 0,416 -285,0 -571,0 -856,1 0,136 0,271 0,407 0,135 0,271 0,406 224,-2 447,-4 672,-4 0,138 0,277 0,416 -225,1 -448,2 -672,5 0,213 0,424 0,636 0,212 0,424 0,636 -174,5 -347,12 -520,19 0,-489 0,-979 0,-1469 0,-490 0,-980 0,-1470zm1626 0c174,0 347,0 521,0 0,419 0,838 0,1256 0,418 0,837 0,1256 285,12 571,27 856,44 0,142 0,284 0,426 -459,-31 -918,-54 -1376,-69 0,-485 0,-971 0,-1456 0,-485 0,-971 0,-1457zm1627 0c174,0 347,0 521,0 0,509 0,1018 0,1526 0,509 0,1017 0,1525 -174,-17 -347,-34 -521,-49 0,-500 0,-1001 0,-1501 0,-500 0,-1001 0,-1501zm1367 1538c-95,-261 -192,-520 -286,-777 -94,-255 -191,-509 -285,-761 182,0 365,0 548,0 58,170 117,340 174,512 58,172 117,345 175,518 3,0 6,0 10,0 60,-170 120,-340 179,-511 60,-172 120,-345 180,-519 164,0 328,0 492,0 -95,269 -190,535 -286,799 -95,261 -191,521 -286,778 100,283 201,569 301,856 101,290 201,583 301,878 -183,-26 -366,-52 -549,-76 -64,-196 -127,-391 -190,-585 -63,-193 -125,-385 -188,-575 -4,0 -7,-1 -10,-1 -65,179 -129,357 -194,534 -64,176 -129,352 -194,526 -165,-20 -329,-38 -493,-57 99,-252 201,-505 300,-761 100,-257 201,-517 301,-778z"/>
 </g>
</svg>
